HIERARCHY
ROOT Hips
{
	OFFSET 0.000000 0.000000 0.000000 
	CHANNELS 6 Xposition Yposition Zposition Zrotation Yrotation Xrotation
	JOINT LeftUpLeg
	{
		OFFSET 1.363060 -1.794630 0.839290 
		CHANNELS 3 Zrotation Yrotation Xrotation
		JOINT LeftLeg
		{
			OFFSET 2.448110 -6.726130 0.000000 
			CHANNELS 3 Zrotation Yrotation Xrotation
			JOINT LeftFoot
			{
				OFFSET 2.562200 -7.039590 0.000000 
				CHANNELS 3 Zrotation Yrotation Xrotation
				JOINT LeftToeBase
				{
					OFFSET 0.157640 -0.433110 2.322550 
					CHANNELS 3 Zrotation Yrotation Xrotation
					End Site
					{
						OFFSET 0.000000 0.000000 0.000000 
					}
				}
			}
		}
	}
	JOINT RightUpLeg
	{
		OFFSET -1.305520 -1.794630 0.839290 
		CHANNELS 3 Zrotation Yrotation Xrotation
		JOINT RightLeg
		{
			OFFSET -2.542530 -6.985550 0.000000 
			CHANNELS 3 Zrotation Yrotation Xrotation
			JOINT RightFoot
			{
				OFFSET -2.568260 -7.056230 0.000000 
				CHANNELS 3 Zrotation Yrotation Xrotation
				JOINT RightToeBase
				{
					OFFSET -0.164730 -0.452590 2.363150 
					CHANNELS 3 Zrotation Yrotation Xrotation
					End Site
					{
						OFFSET 0.000000 0.000000 0.000000 
					}
				}
			}
		}
	}
	JOINT Spine
	{
		OFFSET 0.028270 2.035590 -0.193380 
		CHANNELS 3 Zrotation Yrotation Xrotation
		JOINT Spine1
		{
			OFFSET 0.056720 2.048850 -0.042750 
			CHANNELS 3 Zrotation Yrotation Xrotation
			JOINT Neck1
			{
				OFFSET -0.054170 1.746240 0.172020 
				CHANNELS 3 Zrotation Yrotation Xrotation
				JOINT Head
				{
					OFFSET 0.104070 1.761360 -0.123970 
					CHANNELS 3 Zrotation Yrotation Xrotation
					End Site
					{
						OFFSET 0.000000 0.000000 0.000000 
					}
				}
			}
			JOINT LeftArm
			{
				OFFSET 3.362410 1.200890 -0.311210 
				CHANNELS 3 Zrotation Yrotation Xrotation
				JOINT LeftForeArm
				{
					OFFSET 4.983000 -0.000000 -0.000000 
					CHANNELS 3 Zrotation Yrotation Xrotation
					JOINT LeftHand
					{
						OFFSET 3.483560 -0.000000 -0.000000 
						CHANNELS 3 Zrotation Yrotation Xrotation
						JOINT LeftHandIndex1
						{
							OFFSET 0.715260 -0.000000 -0.000000 
							CHANNELS 3 Zrotation Yrotation Xrotation
							End Site
							{
								OFFSET 0.000000 0.000000 0.000000 
							}
						}
					}
				}
			}
			JOINT RightArm
			{
				OFFSET -3.136600 1.374050 -0.404650 
				CHANNELS 3 Zrotation Yrotation Xrotation
				JOINT RightForeArm
				{
					OFFSET -5.241900 -0.000000 -0.000000 
					CHANNELS 3 Zrotation Yrotation Xrotation
					JOINT RightHand
					{
						OFFSET -3.444170 -0.000000 -0.000000 
						CHANNELS 3 Zrotation Yrotation Xrotation
						JOINT RightHandIndex1
						{
							OFFSET -0.622530 -0.000000 -0.000000 
							CHANNELS 3 Zrotation Yrotation Xrotation
							End Site
							{
								OFFSET 0.000000 0.000000 0.000000 
							}
						}
					}
				}
			}
		}
	}
}
MOTION
Frames: 13
Frame Time: 0.041667
15.417247 17.922634 -11.470693 -0.663313 -50.420094 1.288735 -14.596274 -7.153815 -22.296424 4.978271 14.048369 44.304697 0.588475 -6.600774 -2.544696 0.107600 -2.115500 -5.825000 26.643000 1.967111 -4.653098 -1.764559 -8.128286 25.352892 -0.930913 2.516592 -9.279778 -0.602600 -4.969100 13.820300 2.135271 1.674283 2.217493 0.467397 0.851655 -4.400087 5.483108 -3.296200 17.587412 3.805100 -2.032400 12.563600 -84.888404 3.797613 20.253760 17.841395 -25.071166 -4.688942 -0.997865 -2.161566 7.964661 -7.125000 0.000000 0.000000 85.504276 -2.847381 12.105068 -16.603891 24.372142 -3.738684 0.220381 -0.155792 11.066896 7.125000 0.000000 0.000000 
15.391120 17.914956 -11.456633 -0.403146 -50.483390 1.008262 -14.810423 -7.107285 -22.450253 4.731478 13.836415 43.406657 0.600383 -6.319658 -3.010555 0.242100 -3.166100 -8.741500 26.487281 2.032030 -4.535150 -1.802857 -8.204229 25.590055 -0.946931 2.476241 -9.600293 -0.627300 -5.068000 14.102500 2.047982 1.761222 2.249913 0.384539 0.898679 -4.398259 5.671415 -3.361543 17.373647 3.887300 -2.047700 12.407200 -84.885143 3.998588 20.110346 17.966580 -25.243739 -4.760254 -0.992533 -2.131053 7.737114 -7.125000 0.000000 0.000000 85.638960 -2.775081 11.410135 -16.397219 24.090702 -3.643310 0.219811 -0.164758 11.251867 7.125000 0.000000 0.000000 
15.364993 17.900097 -11.440677 -0.346348 -50.585176 0.924756 -14.953516 -6.851975 -22.674026 4.460744 13.607706 42.424166 0.585092 -5.516317 -3.745899 0.732500 -5.468200 -15.249000 26.480830 2.115672 -4.296187 -1.794573 -8.186288 25.541768 -0.937797 2.393336 -9.678413 -0.651300 -5.162200 14.371700 1.980855 1.869419 2.308275 0.241197 0.954580 -4.294005 5.785017 -3.414235 17.389071 3.937500 -2.064400 12.389100 -84.949906 4.221166 19.809161 18.174608 -25.525480 -4.874584 -0.968448 -2.135181 7.712900 -7.125000 0.000000 0.000000 85.774950 -2.651461 10.892517 -16.228182 23.858967 -3.565737 0.223534 -0.168719 11.337642 7.125000 0.000000 0.000000 
15.339465 17.898302 -11.421232 -0.390150 -50.698642 0.980942 -14.964395 -6.769976 -22.952430 4.171635 13.353802 41.356587 0.561045 -4.786698 -4.296015 1.062500 -6.553500 -18.399200 26.500025 2.037575 -3.827790 -1.674633 -7.938515 24.792450 -0.905055 2.347944 -9.339378 -0.632900 -5.090100 14.165600 1.965958 1.961713 2.263084 0.155936 1.004683 -4.414348 5.818530 -3.433646 17.552376 3.970900 -2.086200 12.441900 -85.117511 4.582579 19.489075 18.323923 -25.726618 -4.955461 -0.962306 -2.145413 7.740242 -7.125000 0.000000 0.000000 85.774023 -2.855734 10.862920 -16.217250 23.831613 -3.557068 0.234587 -0.157767 10.999623 7.125000 0.000000 0.000000 
15.311642 17.911864 -11.398097 -0.422080 -50.798614 0.977172 -14.899408 -7.036654 -23.050242 3.851056 13.051090 40.145787 0.514337 -4.050355 -4.561673 0.848700 -5.875700 -16.424100 26.489155 1.913936 -3.512594 -1.622753 -7.821376 24.445772 -0.916474 2.453171 -9.241959 -0.653900 -5.172400 14.400800 1.930356 2.051109 2.267222 -0.003294 1.049898 -4.437601 5.924082 -3.445833 17.642443 4.036700 -2.094800 12.467800 -85.236955 4.731848 19.128429 18.340031 -25.746851 -4.959149 -0.984438 -2.139531 7.885382 -7.125000 0.000000 0.000000 85.803933 -2.906581 10.480765 -16.136311 23.724454 -3.522249 0.225956 -0.156110 11.071636 7.125000 0.000000 0.000000 
15.272352 18.017568 -11.371571 -0.500294 -50.927740 0.977431 -14.023857 -8.968433 -22.988984 3.532447 12.690394 38.814122 0.559594 -5.222598 -3.023038 0.671300 5.239200 14.592200 26.479792 1.742750 -2.979996 -1.526749 -7.604380 23.805303 -0.914720 2.533156 -9.022263 -0.659500 -5.194100 14.462900 1.890140 2.181055 2.288635 -0.173703 1.115589 -4.420025 6.084209 -3.442622 17.763946 4.123700 -2.088300 12.505600 -85.285536 4.911244 18.912754 18.377767 -25.799684 -4.978833 -0.985138 -2.137181 8.086213 -7.125000 0.000000 0.000000 85.864459 -2.891342 9.791881 -15.965154 23.506706 -3.451943 0.201444 -0.170139 11.804318 7.125000 0.000000 0.000000 
15.252907 17.929615 -11.353023 -0.665973 -50.983612 1.103191 -14.438194 -7.811987 -23.155508 3.184597 12.365615 37.520654 0.451083 -3.100412 -4.829955 0.048800 -1.426000 -3.921800 26.610182 1.625618 -2.686737 -1.465344 -7.464672 23.389122 -0.910656 2.602855 -8.796163 -0.676800 -5.260300 14.652500 1.847028 2.295705 2.317998 -0.365860 1.172634 -4.383123 6.149897 -3.488259 17.831874 4.134500 -2.095900 12.521700 -85.216189 5.036318 18.951796 18.413734 -25.853886 -4.999553 -0.984655 -2.145223 7.901191 -7.125000 0.000000 0.000000 85.918836 -2.932386 9.718473 -15.886778 23.401367 -3.418461 0.201215 -0.173026 12.020999 7.125000 0.000000 0.000000 
15.224686 17.930412 -11.334475 -1.028269 -50.993284 1.354205 -14.245712 -7.726947 -23.257490 2.840291 12.003736 36.154872 0.368385 -1.960518 -5.544734 0.080700 -1.832000 -5.041700 26.882506 1.493307 -2.302867 -1.392096 -7.298615 22.899833 -0.889750 2.514151 -8.730193 -0.666600 -5.221500 14.541500 1.832848 2.365198 2.340782 -0.591214 1.206426 -4.383404 6.091809 -3.534404 17.903174 4.089400 -2.113600 12.561700 -85.170983 5.135583 18.853447 18.417318 -25.863250 -5.002199 -0.972150 -2.147361 7.702128 -7.125000 0.000000 0.000000 85.952934 -2.984893 9.821397 -15.860268 23.362152 -3.406851 0.205461 -0.164901 11.945715 7.125000 0.000000 0.000000 
15.196166 17.933404 -11.310143 -1.349105 -51.023121 1.582600 -14.009443 -7.916949 -23.249245 2.482651 11.599548 34.689746 0.270003 -0.892299 -6.053994 0.091300 -1.949300 -5.365600 27.094511 1.418595 -2.289565 -1.430630 -7.374944 23.140046 -0.925462 2.618374 -8.989087 -0.650600 -5.159500 14.364100 1.828395 2.406761 2.356990 -0.807762 1.222892 -4.372573 6.243001 -3.529977 17.963129 4.186400 -2.111800 12.597400 -85.183682 5.230336 18.717188 18.390531 -25.829093 -4.986070 -0.959605 -2.158835 7.458418 -7.125000 0.000000 0.000000 85.921945 -3.031662 9.890294 -15.841220 23.339605 -3.400586 0.200743 -0.157710 11.830078 7.125000 0.000000 0.000000 
15.164754 17.935199 -11.284415 -1.406702 -51.104463 1.636523 -13.913207 -8.062611 -23.290065 2.125350 11.170872 33.180390 0.169104 0.025156 -6.353029 0.118400 -2.218300 -6.109300 27.105106 1.324222 -2.014326 -1.387786 -7.271814 22.838302 -0.933211 2.693831 -8.914452 -0.638600 -5.112700 14.230300 1.807373 2.480304 2.381211 -0.918037 1.258795 -4.327819 6.444152 -3.545146 17.902312 4.302600 -2.114800 12.554300 -85.223276 5.327775 18.559007 18.350927 -25.778408 -4.962801 -0.952674 -2.165994 7.228958 -7.125000 0.000000 0.000000 85.801284 -3.123904 10.236059 -15.806867 23.291485 -3.386651 0.202871 -0.155130 11.485515 7.125000 0.000000 0.000000 
15.130051 17.935797 -11.262676 -1.373803 -51.175889 1.708030 -13.889231 -7.997792 -23.480331 1.757676 10.696227 31.552216 0.052612 0.800662 -6.075677 0.136300 -2.379600 -6.555900 27.075944 1.299842 -1.831912 -1.345323 -7.182427 22.570842 -0.914190 2.517184 -9.082869 -0.558300 -4.785900 13.298900 1.770108 2.595004 2.363552 -0.983469 1.319824 -4.324445 6.471570 -3.576550 17.828689 4.307000 -2.125800 12.491100 -85.220961 5.509678 18.425679 18.317901 -25.741373 -4.950742 -0.909907 -2.148725 7.132494 -7.125000 0.000000 0.000000 85.772845 -3.246276 10.291805 -15.752662 23.220851 -3.364338 0.201650 -0.168476 11.733924 7.125000 0.000000 0.000000 
15.094750 17.935797 -11.240438 -1.334039 -51.262606 1.773026 -13.845670 -7.949809 -23.653904 1.397846 10.194301 29.877828 -0.044522 1.368115 -5.624659 0.136200 -2.378600 -6.553300 27.025100 1.194070 -1.690768 -1.306806 -7.097344 22.317158 -0.906705 2.422820 -9.208307 -0.465400 -4.375700 12.136100 1.744267 2.702760 2.370731 -1.014638 1.379064 -4.282708 6.334095 -3.587889 17.865186 4.231300 -2.136200 12.515900 -85.186696 5.593105 18.405760 18.231350 -25.633101 -4.908085 -0.866294 -2.149251 7.147289 -7.125000 0.000000 0.000000 85.731366 -3.261452 10.342977 -15.707484 23.168326 -3.347483 0.195260 -0.187587 12.109567 7.125000 0.000000 0.000000 
15.059847 17.935997 -11.215009 -1.404038 -51.369571 1.870727 -13.661899 -8.078523 -23.696821 1.056886 9.683946 28.221354 -0.081710 1.638254 -5.585049 0.128900 -2.314400 -6.375300 27.043488 1.103605 -1.464471 -1.271365 -6.999944 22.037160 -0.931519 2.670586 -8.946398 -0.496900 -4.519500 12.543100 1.716283 2.772511 2.418990 -1.119107 1.417662 -4.178433 6.254846 -3.556677 17.833597 4.188300 -2.121000 12.508100 -85.184925 5.644346 18.257338 18.179884 -25.570048 -4.877956 -0.866850 -2.158674 7.213296 -7.125000 0.000000 0.000000 85.669556 -3.224639 10.636923 -15.685591 23.147482 -3.341902 0.187905 -0.196056 12.159840 7.125000 0.000000 0.000000 
